<?xml version="1.0" encoding="UTF-8"?>
<svg width="400" height="400" version="1.1" xmlns="http://www.w3.org/2000/svg" xmlns:xlink="http://www.w3.org/1999/xlink">
 <circle cx="200" cy="200" r="195.42" fill="#203f82"/>
 <g fill="#eed733">
  <path d="m388.8 200.01a188.71 188.71 0 0 1-188.71 188.71 188.71 188.71 0 0 1-188.71-188.71 188.71 188.71 0 0 1 188.71-188.71 188.71 188.71 0 0 1 188.71 188.71zm-23.463 0a165.25 165.25 0 0 0-165.25-165.25 165.25 165.25 0 0 0-165.25 165.25 165.25 165.25 0 0 0 165.25 165.25 165.25 165.25 0 0 0 165.25-165.25z"/>
  <path d="m200 295.81c-0.814 5.6961-2.4318 11.277-4.7901 16.525-2.5015 5.5672-6.0337 10.952-11.316 14.01-0.7885 0.4565-1.6096 0.8569-2.4548 1.1973 0.8264 2.4531 1.7045 4.8893 2.6341 7.3051 2.2115 5.7474 4.7146 11.386 7.6041 16.824 2.4942 4.6941 5.2754 9.2359 8.3226 13.592 3.0471-4.3556 5.8277-8.8974 8.3218-13.592 2.8896-5.4381 5.3927-11.077 7.6042-16.824 0.9296-2.4158 1.8083-4.852 2.6348-7.3051-0.8452-0.3404-1.6663-0.7408-2.4549-1.1973-5.2821-3.0579-8.815-8.443-11.317-14.01-2.3582-5.2485-3.9753-10.829-4.7893-16.525z"/>
  <path d="m159.9 236.81v22.752h80.231v-22.752z"/>
 </g>
 <g id="a" fill="#eed733">
  <path d="m176.7 62.51c-5.4047 2.0844-10.548 4.8417-15.198 8.302-10.61 7.8493-18.754 19.007-22.895 31.546-1.978 5.9326-3.0987 12.151-3.3069 18.401-13.485 0.45-26.802 5.2352-37.444 13.539-8.8226 6.8349-15.847 15.98-20.118 26.295-4.3177 10.354-5.8952 21.842-4.4712 32.972 1.3747 10.923 5.5643 21.487 12.112 30.342 6.4466 8.7563 15.13 15.854 25.009 20.402 7.8039 3.5992 16.328 5.6282 24.917 5.9232 0.3765 11.88 4.1368 23.617 10.696 33.53 1.9465 1.7098 4.0611 3.2232 6.4048 4.3396 1.5888 0.7445 3.2793 1.3515 5.0401 1.4871 1.6701 0.1212 3.315-0.3842 4.7603-1.2053-10.728-10.087-17.467-24.37-17.467-40.258 0-2.5995 0.183-5.1956 0.5008-7.8131-2.5845 0.3109-5.1429 0.4888-7.7047 0.4888-30.543 2e-4 -55.304-24.76-55.304-55.303-2e-4 -30.544 24.76-55.304 55.304-55.304 2.5872 1e-4 5.1709 0.1814 7.7424 0.4942-0.3555-2.6229-0.5385-5.219-0.5385-7.8185 2e-4 -20.481 11.163-38.32 27.708-47.878 1.3603-4.1805 2.7575-8.3493 4.2535-12.483z"/>
  <path d="m185.9 262.71c-1.0257 4.293-2.2542 8.5374-3.6806 12.714-1.9046 5.5769-4.2136 11.123-7.9316 15.695-1.859 2.2862-4.0632 4.3084-6.5894 5.8253-2.5261 1.5169-5.38 2.5192-8.3172 2.7539-4.73 0.3779-9.4329-1.2382-13.557-3.5848-3.6316-2.0662-6.9325-4.7124-9.7389-7.8079-1.4115 3.5901-2.1854 7.4297-2.2749 11.286-0.1873 8.064 2.7526 16.218 8.2828 22.09 5.5303 5.8719 13.636 9.317 21.692 8.9059 5.4545-0.2783 10.765-2.2633 15.26-5.3662 4.4946-3.1028 8.1887-7.2945 10.994-11.981 5.6102-9.3722 7.6253-20.47 8.3152-31.372 0.4037-6.3783 0.3893-12.783-0.044-19.16z"/>
  <path d="m132 147.01c-3.4586 0.059-6.8788 0.7803-9.9908 2.2909-3.6014 1.748-6.6998 4.5078-8.8809 7.8647-2.181 3.3569-3.4425 7.2997-3.6522 11.297-0.3762 7.1712 2.5806 14.157 6.586 20.117 2.4747 3.6822 5.5032 7.1897 9.5351 9.0409 1.2504 0.574 2.5785 0.9779 3.9367 1.1973-0.2153-1.4684-0.3555-2.9481-0.4194-4.4308-0.072-1.6676-0.046-3.3556 0.344-4.9786 0.3895-1.623 1.167-3.1886 2.4106-4.3018 1.2984-1.1623 3.0327-1.763 4.7695-1.9058 1.7368-0.1429 3.4838 0.145 5.1691 0.5887 5.3814 1.4171 10.277 4.4309 14.273 8.304 5.9299 5.7477 9.8597 13.244 12.992 20.885 2.7559 6.7239 4.9736 13.668 6.6245 20.745h14.609c-1.3281-7.6554-3.0071-15.25-5.0295-22.752-5.0069-18.572-12.467-37.108-25.98-50.797-4.8605-4.9237-10.544-9.196-17.075-11.479-3.2655-1.1414-6.7625-1.746-10.221-1.6876z"/>
 </g>
 <path d="m200 34.75c-3.1474 5.8509-6.0258 11.847-8.6222 17.962-3.4263 8.0698-6.3593 16.341-9.1005 24.668-8.1166 24.657-14.617 50.845-10.05 76.398 3.2241 18.038 11.792 34.683 16.277 52.45 1.4116 5.5928 2.4139 11.28 3.336 16.974 0.5696 3.5178 1.1095 7.0407 1.6187 10.568h13.082c0.5092-3.527 1.0484-7.0499 1.6181-10.568 0.9221-5.694 1.9243-11.381 3.336-16.974 4.4845-17.767 13.052-34.412 16.277-52.45 4.5676-25.554-1.9331-51.741-10.05-76.398-2.7412-8.3273-5.6743-16.598-9.1005-24.668-2.5965-6.1154-5.4742-12.111-8.6215-17.962z" fill="#eed733"/>
 <use transform="matrix(-1 0 0 1 400.05 -.0236)" xlink:href="#a"/>
</svg>
