<svg xmlns="http://www.w3.org/2000/svg" width="1038" height="512" viewBox="0 0 1038 512">
  <defs>
    <style>
      .cls-1 {
        fill: #0082c4;
      }

      .cls-1, .cls-2 {
        fill-rule: evenodd;
      }

      .cls-2 {
        fill: #e74345;
      }
    </style>
  </defs>
  <path id="Text" class="cls-1" d="M180.9,221.446l38.365-4.235c49.566-8.3,56.117-27.847,56.117-76.376S264.5,76.562,217.367,80.275L180.9,84.3V221.446Zm32.667-32.723V109.811l1.9-.209c26.065-1.614,28.263,3.558,28.263,35.629s0.3,37.207-28.263,43.282Zm80.28,18.925L378.8,199.6V169.218l-53.3,5.9V150.505l44.562-4.8V115.324L325.5,121.5V100.4l53.635-6.154V63.473l-85.288,9.67V207.648ZM398.48,196.22l46.792-3.956c26.589-2.935,47.29-17,47.29-45.275,0-18.145-5.964-22.156-14.948-28.132h0c9.059-8.736,13.189-18.074,13.189-29.89,0-27.007-18.968-36.815-49.239-32.527l-43.084,4.4V196.22Zm31.654-87.033v-21.1l10.551-1.758c10.636-1.174,18.465-.528,18.465,7.912s-5.191,12.892-15.827,14.066Zm-0.879,53.626,0.879-22.857,13.189-2.637c12.915-1.426,16.49.774,17.585,9.67,1.238,10.052-3.791,12.64-16.706,14.066ZM551.472,180.4c39.281-4.04,51-27.182,51-72.967,0-45.575-13.418-66.015-43.084-64.176-39.951,2.476-53.738,25.013-52.756,74.725C507.534,163.755,521.905,183.437,551.472,180.4Zm2.638-29.891c-8.441.932-16.706-.6-16.706-36.043s10.024-40.387,18.465-41.319,14.947,2.355,14.947,37.8S562.551,149.574,554.11,150.505Zm65.066-43.076c0,46.84,11.894,60.616,43.084,60.659,34.4,0.047,51.876-25.247,51.876-72.088V26.55l-31.653,3.516v73.846c0,24.475-3.736,33.506-16.706,34.286-11.844.712-14.948-6.294-14.948-30.769L649.95,33.582l-31.653,4.4ZM758.1,156.659l30.774-2.637V48.528l29.895-2.637V16L728,23.91V54.293l30.1-2.249V156.659ZM16.366,397.85l83.8-9.25V358.217L50.846,363.66V256.9L16.366,260.7V397.85Zm135.041-63.608s5.245-11.834,9.672-34.286l10.551,32.528Zm35.36,44.8,32.343-3.48L173.388,245.451l-25.5,2.637-45.721,140.29,35.283-3.894,4.283-22.11,38.688-2.638Zm77.186-7.875,31.653-4.4V314.9l45.722-5.275v-29.89l-47.48,5.275L293.6,260.485,349.241,256V226.11l-85.288,7.912V371.165ZM397.6,250.725l13.189-1.758c8.714,0.068,15.688,1.662,15.852,10.758,0.174,9.636-3.655,15.148-15.852,16.5L397.6,277.1V250.725Zm67.7,97.583L438.927,295.56c11.3-8.421,19.343-19.058,19.343-38.681,0-34.181-22.369-40.574-47.48-37.8l-44.842,4.4,0.068,135.781,30.851-3.405L397.6,306.11l9.672-1.758,21.521,47.973Zm48.36-53.627s8.551-25.513,10.551-35.165l9.672,32.528Zm34.291,43.956,33.412-3.516-46.6-129.231-23.74,2.637L466.184,348.308l33.156-3.77,4.652-20.846L541.8,319.3Zm44.066-4.33,29.416-3.247s0.713-63.527.377-67.148L662.26,326.33l24.466-2.477,1.033-134.666-30.775,2.637,0.326,37.8c0,16.88-1.761,12.647-.326,27.258L617.417,196.22l-26.378,3.516ZM707.1,254.242c0,46.84,12.218,62.313,45.722,63.3,14.43,0.424,43.767-11.933,50.118-50.109l-31.653,3.516c-5.022,6.884-5.281,15.462-14.25,16.452-15.066,1.663-19.162-11.81-19.162-37.551,0-24.9,4.474-38.016,18.464-39.56,7.534-.832,11.847,5.9,15.827,13.187l30.774-4.4c-6.108-34.061-30.967-39.81-45.722-38.681C720.881,183.174,707.1,208.245,707.1,254.242Zm109.029,55.384,85.289-8.791V270.066l-53.635,6.154V253.363l45.722-5.275V218.2l-45.722,4.395V201.5l53.635-6.154v-29.89l-85.289,8.791V309.626Zm134.528-59.78,21.981-2.637,5.576-65.67,0.579-24.88-36.05,3.517,1.706,25.09Zm-4.4,14.066,30.775-2.637v30.769l-30.775,3.516V263.912Z"/>
  <path id="Stripe" class="cls-2" d="M161.27,462.593s300.29-93.285,859.52-125.39c0.04,0,0,4.624,0,4.624s-441.2,21-859.52,153.93C161.156,495.793,161.27,462.593,161.27,462.593Z"/>
</svg>
