<?xml version="1.0" encoding="utf-8"?>
<!-- Generator: Adobe Illustrator 22.1.0, SVG Export Plug-In . SVG Version: 6.00 Build 0)  -->
<svg version="1.1" id="Calque_1" xmlns="http://www.w3.org/2000/svg" xmlns:xlink="http://www.w3.org/1999/xlink" x="0px" y="0px"
	 viewBox="0 0 54.7 100" style="enable-background:new 0 0 54.7 100;" xml:space="preserve">
<style type="text/css">
	.st0{fill:#FFFFFF;}
	.st1{fill:#2A0B8D;}
	.st2{fill:none;stroke:#FFFFFF;stroke-width:2;}
	.st3{fill:#B30035;}
</style>
<g>
	<polygon class="st0" points="0.5,33.6 26.9,1.1 54.2,33.6 27.8,99.2 	"/>
	<path class="st1" d="M26.9,1.5l27,32.1L27.8,98.5L0.8,33.6L26.9,1.5 M26.9,0.7l-0.4,0.5L0.4,33.3l-0.2,0.2l0.1,0.3l26.9,64.9
		l0.5,1.1l0.5-1.1l26.1-64.9l0.1-0.3l-0.2-0.2l-27-32.1L26.9,0.7L26.9,0.7z"/>
</g>
<polygon class="st1" points="52.6,33.6 27.8,96 2,33.6 26.9,3.1 "/>
<path class="st2" d="M29.9,50.2l0-12.5h10.7c0,0.2-0.1,0.4-0.1,0.6c0,1.5,1.1,2.7,2.5,2.7c1.4,0,2.6-1.2,2.6-2.7
	c0-0.2,0-0.4-0.1-0.6c0.1,0,0.3,0,0.4,0c1.4,0,2.6-1.2,2.6-2.7c0-1.5-1.1-2.7-2.6-2.7c-0.1,0-0.3,0-0.4,0c0-0.2,0.1-0.4,0.1-0.6
	c0-1.5-1.1-2.7-2.6-2.7c-1.4,0-2.5,1.2-2.5,2.7c0,0.2,0,0.4,0.1,0.6H29.9V27h3.9c0,0.2-0.1,0.4-0.1,0.6c0,1.5,1.1,2.7,2.6,2.7
	c1.4,0,2.5-1.2,2.5-2.7c0-0.2,0-0.4-0.1-0.6c0.1,0,0.3,0,0.4,0c1.4,0,2.5-1.2,2.5-2.7c0-1.5-1.1-2.7-2.5-2.7c-0.1,0-0.3,0-0.4,0
	c0-0.2,0.1-0.4,0.1-0.6c0-1.5-1.1-2.7-2.5-2.7s-2.6,1.2-2.6,2.7c0,0.2,0,0.4,0.1,0.6h-3.9v-4c0.2,0,0.3,0.1,0.5,0.1
	c1.4,0,2.5-1.2,2.5-2.7c0-1.5-1.1-2.7-2.5-2.7c-0.2,0-0.4,0-0.6,0.1c0-0.1,0-0.3,0-0.4c0-1.5-1.1-2.7-2.5-2.7l0,0
	c-1.4,0-2.6,1.2-2.6,2.7c0,0.1,0,0.3,0,0.4c-0.2,0-0.4-0.1-0.6-0.1c-1.4,0-2.6,1.2-2.6,2.7s1.1,2.7,2.6,2.7c0.2,0,0.4,0,0.5-0.1v4
	h-3.9c0-0.2,0.1-0.4,0.1-0.6c0-1.5-1.1-2.7-2.5-2.7s-2.6,1.2-2.6,2.7c0,0.2,0,0.4,0.1,0.6c-0.1,0-0.3,0-0.4,0
	c-1.4,0-2.6,1.2-2.6,2.7c0,1.5,1.1,2.7,2.6,2.7c0.1,0,0.3,0,0.4,0c0,0.2-0.1,0.4-0.1,0.6c0,1.5,1.1,2.7,2.6,2.7
	c1.4,0,2.5-1.2,2.5-2.7c0-0.2,0-0.4-0.1-0.6h3.9v5.3H14.1c0-0.2,0.1-0.4,0.1-0.6c0-1.5-1.1-2.7-2.5-2.7c-1.4,0-2.6,1.2-2.6,2.7
	c0,0.2,0,0.4,0.1,0.6c-0.1,0-0.3,0-0.4,0c-1.4,0-2.6,1.2-2.6,2.7s1.1,2.7,2.6,2.7c0.1,0,0.3,0,0.4,0C9,37.9,9,38.1,9,38.3
	c0,1.5,1.1,2.7,2.6,2.7c1.4,0,2.5-1.2,2.5-2.7c0-0.2,0-0.4-0.1-0.6h10.7v11.4 M24.8,58.8v13.4c-0.2,0-0.3-0.1-0.5-0.1
	c-1.4,0-2.5,1.2-2.5,2.7c0,1.5,1.1,2.7,2.5,2.7c0.2,0,0.4,0,0.6-0.1c0,0.1,0,0.3,0,0.4c0,1.5,1.1,2.6,2.6,2.6c1.4,0,2.5-1.1,2.5-2.6
	c0-0.1,0-0.3,0-0.4c0.2,0,0.4,0.1,0.6,0.1c1.4,0,2.5-1.2,2.5-2.7c0-1.5-1.1-2.7-2.5-2.7c-0.2,0-0.4,0-0.5,0.1l0-17.5"/>
<path id="Croix_de_lorraine" class="st3" d="M27.3,9.3c-1.4,0-2.6,1.2-2.6,2.7c0,0.1,0,0.3,0,0.4c-0.2,0-0.4-0.1-0.6-0.1
	c-1.4,0-2.6,1.2-2.6,2.7s1.1,2.7,2.6,2.7c0.2,0,0.4,0,0.5-0.1v4h-3.9c0-0.2,0.1-0.4,0.1-0.6c0-1.5-1.1-2.7-2.5-2.7s-2.6,1.2-2.6,2.7
	c0,0.2,0,0.4,0.1,0.6c-0.1,0-0.3,0-0.4,0c-1.4,0-2.6,1.2-2.6,2.7c0,1.5,1.1,2.7,2.6,2.7c0.1,0,0.3,0,0.4,0c0,0.2-0.1,0.4-0.1,0.6
	c0,1.5,1.1,2.7,2.6,2.7c1.4,0,2.5-1.2,2.5-2.7c0-0.2,0-0.4-0.1-0.6h3.9v5.3H14c0-0.2,0.1-0.4,0.1-0.6c0-1.5-1.1-2.7-2.5-2.7
	S9,30.3,9,31.8c0,0.2,0,0.4,0.1,0.6c-0.1,0-0.3,0-0.4,0c-1.4,0-2.6,1.2-2.6,2.7s1.1,2.7,2.6,2.7c0.1,0,0.3,0,0.4,0
	C9,37.9,9,38.1,9,38.3c0,1.5,1.1,2.7,2.6,2.7s2.5-1.2,2.5-2.7c0-0.2,0-0.4-0.1-0.6h10.7v34.4c-0.2,0-0.3-0.1-0.5-0.1
	c-1.4,0-2.5,1.2-2.5,2.7c0,1.5,1.1,2.7,2.5,2.7c0.2,0,0.4,0,0.6-0.1c0,0.1,0,0.3,0,0.4c0,1.5,1.1,2.6,2.6,2.6c1.4,0,2.5-1.1,2.5-2.6
	c0-0.1,0-0.3,0-0.4c0.2,0,0.4,0.1,0.6,0.1c1.4,0,2.5-1.2,2.5-2.7c0-1.5-1.1-2.7-2.5-2.7c-0.2,0-0.4,0-0.5,0.1l0-17.3l0-4.9l0-12.2
	h10.7c0,0.2-0.1,0.4-0.1,0.6c0,1.5,1.1,2.7,2.5,2.7c1.4,0,2.6-1.2,2.6-2.7c0-0.2,0-0.4-0.1-0.6c0.1,0,0.3,0,0.4,0
	c1.4,0,2.6-1.2,2.6-2.7c0-1.5-1.1-2.7-2.6-2.7c-0.1,0-0.3,0-0.4,0c0-0.2,0.1-0.4,0.1-0.6c0-1.5-1.1-2.7-2.6-2.7
	c-1.4,0-2.5,1.2-2.5,2.7c0,0.2,0,0.4,0.1,0.6H29.9V27h3.9c0,0.2-0.1,0.4-0.1,0.6c0,1.5,1.1,2.7,2.6,2.7c1.4,0,2.5-1.2,2.5-2.7
	c0-0.2,0-0.4-0.1-0.6c0.1,0,0.3,0,0.4,0c1.4,0,2.5-1.2,2.5-2.7c0-1.5-1.1-2.7-2.5-2.7c-0.1,0-0.3,0-0.4,0c0-0.2,0.1-0.4,0.1-0.6
	c0-1.5-1.1-2.7-2.5-2.7s-2.6,1.2-2.6,2.7c0,0.2,0,0.4,0.1,0.6h-3.9v-4c0.2,0,0.3,0.1,0.5,0.1c1.4,0,2.5-1.2,2.5-2.7
	c0-1.5-1.1-2.7-2.5-2.7c-0.2,0-0.4,0-0.6,0.1c0-0.1,0-0.3,0-0.4C29.9,10.5,28.7,9.3,27.3,9.3L27.3,9.3z"/>
<path class="st0" d="M18.4,49.7c-0.1-0.1-0.1-0.3-0.2-0.5c0-0.2-0.1-0.5-0.1-0.7c0-0.3,0-0.5-0.1-0.8c0-0.2-0.1-0.5-0.1-0.6
	c-0.1-0.3-0.4-0.4-0.8-0.4h-2v3h-1.5v-7.5h3.7c0.3,0,0.6,0,0.9,0.1c0.3,0,0.6,0.1,0.8,0.3c0.2,0.1,0.4,0.4,0.6,0.6
	c0.2,0.3,0.2,0.7,0.2,1.1c0,0.3,0,0.6-0.1,0.8s-0.2,0.4-0.3,0.5c-0.1,0.1-0.3,0.3-0.4,0.3c-0.2,0.1-0.3,0.1-0.5,0.1
	c0.3,0,0.5,0.1,0.6,0.3c0.1,0.1,0.2,0.3,0.3,0.5c0.1,0.2,0.1,0.5,0.1,0.8c0,0.3,0.1,0.7,0.1,1.2c0,0.3,0.1,0.5,0.2,0.7H18.4z
	 M18.3,43.9c0-0.1-0.1-0.2-0.2-0.3c-0.1-0.1-0.2-0.1-0.3-0.1c-0.1,0-0.3,0-0.5,0h-2.1v2.1h2c0.3,0,0.5,0,0.6-0.1
	c0.2,0,0.3-0.1,0.4-0.2s0.1-0.2,0.2-0.4c0-0.1,0-0.3,0-0.5C18.4,44.2,18.4,44,18.3,43.9z M30.4,53.4c-0.1,0.3-0.2,0.5-0.3,0.8
	c-0.2,0.2-0.4,0.5-0.8,0.6c-0.3,0.2-0.8,0.3-1.4,0.3h-2.1v3.2h-1.6v-8h4c0.3,0,0.7,0,0.9,0.2c0.3,0.1,0.5,0.3,0.7,0.5
	c0.2,0.2,0.4,0.5,0.5,0.8c0.1,0.3,0.2,0.7,0.2,1.1C30.5,52.9,30.5,53.2,30.4,53.4z M28.8,52.1c0-0.1-0.1-0.3-0.2-0.3
	c-0.1-0.1-0.2-0.1-0.4-0.1c-0.1,0-0.3,0-0.5,0h-1.9v2.3h2c0.2,0,0.3,0,0.5,0c0.1,0,0.2-0.1,0.3-0.2c0.1-0.1,0.1-0.2,0.2-0.4
	c0-0.2,0.1-0.4,0.1-0.6C28.9,52.5,28.9,52.3,28.8,52.1z M36.5,43.1v2.1h3.8v1.4h-3.8v3.8h-1.7v-8.6H41v1.4H36.5z"/>
</svg>
